<svg width="400" height="400" viewBox="0 0 400 400" fill="none" xmlns="http://www.w3.org/2000/svg">
<g clip-path="url(#clip0_143_6100)">
<path d="M332.536 398.248C368.754 398.248 398.201 368.801 398.201 332.584V67.4636C398.248 31.2463 368.754 1.79901 332.536 1.79901H1.75175V332.584C1.75175 368.801 31.1991 398.248 67.4637 398.248H332.536Z" fill="white"/>
<path d="M3.55071 3.55072V332.536C3.55071 367.759 32.2405 396.449 67.4636 396.449H332.536C367.759 396.449 396.449 367.759 396.449 332.536V67.4636C396.449 32.2405 367.759 3.55072 332.536 3.55072H3.55071ZM-1.22566e-06 0H332.536C369.795 0 400 30.2048 400 67.4636V332.536C400 369.795 369.795 400 332.536 400H67.4636C30.2048 400 -1.22566e-06 369.795 -1.22566e-06 332.536V0Z" fill="#0070B8"/>
<path d="M48.053 331.826V309.149H53.024V315.919H53.8288C54.2549 314.262 54.7757 312.889 55.4385 311.8C56.1013 310.711 56.9061 309.907 57.853 309.338C58.7998 308.77 59.8887 308.534 61.167 308.534C62.5399 308.534 63.6288 308.818 64.5283 309.433C65.4278 310.049 66.0906 310.901 66.6114 311.942C67.0848 313.031 67.4162 314.357 67.5582 315.919H68.2684C68.6945 314.215 69.3099 312.842 70.0201 311.753C70.7302 310.664 71.6297 309.859 72.6713 309.338C73.7128 308.818 74.8017 308.581 76.08 308.581C77.3582 308.581 78.3998 308.818 79.3466 309.338C80.2935 309.812 81.051 310.569 81.7138 311.516C82.3766 312.463 82.8027 313.694 83.1341 315.162C83.4655 316.629 83.6075 318.286 83.6075 320.18V331.874H77.4056V320.937C77.4056 319.375 77.2635 318.097 77.0268 317.008C76.7901 315.966 76.364 315.162 75.7959 314.641C75.2751 314.12 74.565 313.883 73.6655 313.883C72.7186 313.883 71.9138 314.215 71.2036 314.83C70.4935 315.493 69.9727 316.345 69.5466 317.481C69.1206 318.618 68.9312 319.896 68.8838 321.316V331.826H62.7766V321.079C62.7766 319.47 62.6346 318.144 62.3505 317.103C62.0665 316.061 61.6404 315.256 61.1196 314.688C60.5988 314.12 59.8887 313.883 59.0365 313.883C58.0423 313.883 57.2375 314.215 56.5274 314.83C55.8172 315.493 55.2964 316.392 54.9177 317.529C54.539 318.665 54.3496 319.943 54.3022 321.363V331.826H48.1003H48.053Z" fill="#0070B8"/>
<path d="M101.03 332.442C99.1834 332.442 97.4791 332.205 96.0588 331.684C94.5911 331.163 93.3602 330.406 92.366 329.459C91.3718 328.465 90.567 327.281 90.0462 325.814C89.5255 324.393 89.2414 322.736 89.2414 320.937C89.2414 319.138 89.4781 317.529 89.9989 316.014C90.5197 314.499 91.2298 313.173 92.224 312.084C93.2182 310.995 94.4018 310.096 95.8221 309.528C97.2423 308.96 98.852 308.628 100.604 308.628C102.355 308.628 103.87 308.912 105.243 309.48C106.616 310.049 107.705 310.901 108.652 311.99C109.551 313.126 110.214 314.499 110.64 316.108C111.066 317.718 111.208 319.612 111.114 321.695L93.3129 321.884V318.476L107.516 318.334L105.338 320.085C105.527 318.57 105.433 317.292 105.054 316.345C104.628 315.351 104.06 314.641 103.302 314.167C102.545 313.694 101.693 313.457 100.793 313.457C99.7042 313.457 98.71 313.741 97.9051 314.309C97.053 314.878 96.4375 315.73 95.9641 316.819C95.4907 317.907 95.2539 319.28 95.2539 320.795C95.2539 323.257 95.7747 325.056 96.8636 326.192C97.9525 327.329 99.3728 327.944 101.124 327.944C101.929 327.944 102.639 327.849 103.16 327.613C103.681 327.376 104.202 327.139 104.533 326.761C104.912 326.429 105.196 326.003 105.385 325.577C105.575 325.151 105.764 324.725 105.906 324.299L111.303 325.482C111.066 326.571 110.688 327.518 110.167 328.37C109.646 329.222 108.983 329.933 108.179 330.548C107.326 331.163 106.332 331.637 105.196 331.968C104.012 332.3 102.687 332.442 101.124 332.442H101.03Z" fill="#0070B8"/>
<path d="M117.221 331.826V309.149H122.381V316.866H123.233C123.47 314.925 123.849 313.363 124.417 312.179C124.985 310.948 125.743 310.096 126.784 309.48C127.778 308.912 129.057 308.628 130.524 308.628C130.761 308.628 131.045 308.628 131.376 308.628C131.66 308.628 132.039 308.676 132.418 308.77L132.181 315.398C131.755 315.209 131.282 315.067 130.761 314.972C130.24 314.878 129.767 314.83 129.388 314.83C128.252 314.83 127.305 315.067 126.5 315.588C125.695 316.108 125.032 316.866 124.512 317.813C123.991 318.76 123.659 319.943 123.517 321.316V331.779H117.268L117.221 331.826Z" fill="#0070B8"/>
<path d="M137.531 331.826V300.911H143.686V331.826H137.531Z" fill="#0070B8"/>
<path d="M161.486 332.442C159.64 332.442 157.936 332.205 156.515 331.684C155.048 331.163 153.817 330.406 152.823 329.459C151.829 328.465 151.024 327.281 150.503 325.814C149.982 324.393 149.698 322.736 149.698 320.937C149.698 319.138 149.935 317.529 150.456 316.014C150.976 314.499 151.687 313.173 152.681 312.084C153.675 310.995 154.858 310.096 156.279 309.528C157.699 308.96 159.309 308.628 161.06 308.628C162.812 308.628 164.327 308.912 165.7 309.48C167.073 310.049 168.162 310.901 169.109 311.99C170.008 313.126 170.671 314.499 171.097 316.108C171.523 317.718 171.665 319.612 171.571 321.695L153.77 321.884V318.476L167.972 318.334L165.795 320.085C165.984 318.57 165.889 317.292 165.511 316.345C165.085 315.351 164.516 314.641 163.759 314.167C163.001 313.694 162.149 313.457 161.25 313.457C160.161 313.457 159.167 313.741 158.362 314.309C157.51 314.878 156.894 315.73 156.421 316.819C155.947 317.907 155.711 319.28 155.711 320.795C155.711 323.257 156.231 325.056 157.32 326.192C158.409 327.329 159.829 327.944 161.581 327.944C162.386 327.944 163.096 327.849 163.617 327.613C164.138 327.376 164.658 327.139 164.99 326.761C165.369 326.429 165.653 326.003 165.842 325.577C166.031 325.151 166.221 324.725 166.363 324.299L171.76 325.482C171.523 326.571 171.144 327.518 170.624 328.37C170.103 329.222 169.44 329.933 168.635 330.548C167.783 331.163 166.789 331.637 165.653 331.968C164.469 332.3 163.143 332.442 161.581 332.442H161.486Z" fill="#0070B8"/>
<path d="M186.152 332.347C183.643 332.347 181.749 331.684 180.566 330.359C179.382 329.033 178.767 326.903 178.767 323.92V314.025H175.5L175.595 309.149H177.867C178.767 309.149 179.429 309.007 179.856 308.77C180.282 308.534 180.566 308.013 180.613 307.35L181.181 304.131H184.732V309.196H190.46V314.262H184.732V323.731C184.732 324.772 184.969 325.53 185.442 325.956C185.915 326.429 186.673 326.666 187.667 326.666C188.235 326.666 188.756 326.619 189.229 326.477C189.75 326.382 190.176 326.192 190.555 325.908V331.684C189.656 331.968 188.851 332.158 188.093 332.252C187.336 332.347 186.673 332.394 186.105 332.394L186.152 332.347Z" fill="#0070B8"/>
<path d="M206.888 332.442C204.947 332.442 203.196 332.158 201.728 331.59C200.26 331.021 199.029 330.217 198.035 329.175C197.041 328.134 196.331 326.903 195.81 325.482C195.337 324.062 195.053 322.5 195.053 320.795C195.053 318.996 195.289 317.387 195.81 315.872C196.331 314.404 197.041 313.126 198.035 311.99C199.029 310.853 200.213 310.049 201.681 309.433C203.148 308.818 204.758 308.534 206.604 308.534C208.451 308.534 210.06 308.818 211.433 309.433C212.806 310.049 213.895 310.901 214.747 311.942C215.599 313.031 216.168 314.309 216.499 315.777L210.77 317.623C210.676 316.724 210.439 315.966 210.06 315.304C209.682 314.641 209.161 314.167 208.498 313.836C207.835 313.505 207.125 313.315 206.32 313.315C205.515 313.315 204.758 313.505 204.142 313.836C203.527 314.167 203.006 314.641 202.627 315.256C202.201 315.872 201.87 316.629 201.681 317.481C201.444 318.381 201.349 319.328 201.349 320.464C201.349 322.026 201.539 323.352 201.965 324.441C202.391 325.53 203.006 326.335 203.811 326.903C204.616 327.471 205.657 327.755 206.841 327.755C208.025 327.755 208.924 327.518 209.587 327.092C210.25 326.666 210.77 326.05 211.102 325.34C211.433 324.63 211.623 323.92 211.717 323.163L217.162 324.393C217.02 325.53 216.688 326.571 216.215 327.565C215.741 328.56 215.079 329.412 214.179 330.122C213.327 330.832 212.285 331.4 211.055 331.826C209.824 332.252 208.356 332.442 206.699 332.442H206.888Z" fill="#3A3A39"/>
<path d="M233.116 332.442C230.844 332.442 228.856 331.968 227.104 331.069C225.352 330.169 224.027 328.844 223.032 327.045C222.038 325.293 221.565 323.068 221.565 320.417C221.565 317.765 222.085 315.54 223.08 313.789C224.074 312.037 225.447 310.711 227.199 309.812C228.95 308.912 230.939 308.486 233.116 308.486C235.294 308.486 237.425 308.96 239.129 309.812C240.833 310.664 242.254 312.037 243.248 313.789C244.242 315.54 244.763 317.765 244.763 320.417C244.763 323.068 244.242 325.34 243.248 327.092C242.206 328.844 240.833 330.169 239.082 331.069C237.33 331.921 235.341 332.347 233.116 332.347V332.442ZM233.353 327.849C234.489 327.849 235.436 327.613 236.194 327.092C236.951 326.571 237.519 325.766 237.898 324.725C238.277 323.683 238.466 322.405 238.466 320.89C238.466 319.328 238.277 317.955 237.851 316.866C237.425 315.777 236.809 314.925 236.004 314.309C235.199 313.741 234.158 313.41 232.927 313.41C231.838 313.41 230.939 313.647 230.181 314.167C229.424 314.688 228.808 315.446 228.429 316.487C228.003 317.529 227.814 318.807 227.814 320.369C227.814 322.831 228.287 324.677 229.282 325.956C230.276 327.234 231.601 327.849 233.353 327.849Z" fill="#3A3A39"/>
<path d="M250.775 331.826V300.911H256.93V331.826H250.775Z" fill="#3A3A39"/>
<path d="M264.126 331.826V300.911H270.28V331.826H264.126Z" fill="#3A3A39"/>
<path d="M288.081 332.442C286.188 332.442 284.531 332.205 283.11 331.684C281.69 331.163 280.412 330.406 279.418 329.459C278.423 328.465 277.619 327.281 277.098 325.814C276.577 324.393 276.293 322.736 276.293 320.937C276.293 319.138 276.53 317.529 277.05 316.014C277.571 314.499 278.281 313.173 279.276 312.084C280.27 310.995 281.453 310.096 282.874 309.528C284.294 308.912 285.904 308.628 287.655 308.628C289.407 308.628 290.922 308.912 292.295 309.48C293.668 310.049 294.757 310.901 295.704 311.99C296.603 313.126 297.266 314.499 297.692 316.108C298.118 317.718 298.26 319.612 298.165 321.695L280.364 321.884V318.476L294.567 318.334L292.342 320.085C292.532 318.57 292.437 317.292 292.058 316.345C291.632 315.351 291.064 314.641 290.306 314.167C289.549 313.694 288.697 313.457 287.797 313.457C286.708 313.457 285.762 313.741 284.909 314.309C284.057 314.878 283.442 315.73 282.968 316.819C282.495 317.907 282.258 319.28 282.258 320.795C282.258 323.257 282.779 325.056 283.868 326.192C284.957 327.329 286.377 327.944 288.129 327.944C288.934 327.944 289.596 327.849 290.164 327.613C290.733 327.376 291.206 327.139 291.537 326.761C291.916 326.429 292.2 326.003 292.39 325.577C292.626 325.151 292.768 324.725 292.91 324.299L298.307 325.482C298.071 326.571 297.645 327.518 297.171 328.37C296.65 329.222 295.988 329.933 295.135 330.548C294.283 331.163 293.289 331.637 292.153 331.968C290.969 332.3 289.644 332.442 288.081 332.442Z" fill="#3A3A39"/>
<path d="M313.031 339.733C310.569 339.733 308.533 339.543 306.924 339.164C305.314 338.786 304.13 338.218 303.42 337.46C302.663 336.703 302.284 335.756 302.284 334.667C302.284 333.341 302.805 332.252 303.846 331.448C304.888 330.595 306.45 330.122 308.486 329.933V329.08C306.924 329.08 305.74 328.938 304.888 328.607C304.036 328.276 303.657 327.707 303.657 326.855C303.657 326.003 304.083 325.34 304.888 324.677C305.693 324.015 307.066 323.541 308.959 323.163V322.31C307.16 322.216 305.787 321.6 304.793 320.559C303.799 319.517 303.278 318.192 303.278 316.535C303.278 315.114 303.704 313.789 304.509 312.652C305.314 311.516 306.498 310.617 308.107 309.907C309.717 309.244 311.658 308.912 314.025 308.912H325.529V313.647L318.381 312.652V313.647C320.227 313.883 321.553 314.357 322.357 315.02C323.162 315.682 323.588 316.582 323.588 317.765C323.588 318.949 323.21 319.991 322.405 320.89C321.647 321.79 320.511 322.5 319.091 322.973C317.671 323.494 315.966 323.731 313.978 323.731C313.599 323.731 313.22 323.731 312.747 323.683C312.321 323.683 311.611 323.589 310.569 323.494C310.001 323.92 309.622 324.251 309.291 324.535C309.007 324.82 308.817 325.104 308.817 325.388C308.817 325.577 308.912 325.766 309.149 325.908C309.386 326.05 309.67 326.145 310.001 326.192C310.38 326.24 310.711 326.287 311.09 326.287H317.576C318.144 326.287 318.901 326.287 319.801 326.382C320.701 326.477 321.647 326.666 322.547 327.045C323.446 327.423 324.251 327.991 324.867 328.844C325.482 329.696 325.814 330.832 325.814 332.347C325.814 334.004 325.34 335.424 324.393 336.513C323.446 337.602 322.026 338.407 320.132 338.928C318.239 339.448 315.824 339.685 312.889 339.685L313.031 339.733ZM313.741 334.762C315.493 334.762 316.866 334.667 317.86 334.477C318.854 334.288 319.517 334.004 319.943 333.578C320.369 333.152 320.558 332.631 320.558 332.016C320.558 331.448 320.416 330.974 320.18 330.69C319.943 330.359 319.612 330.169 319.233 330.027C318.854 329.885 318.475 329.838 318.049 329.791C317.671 329.791 317.339 329.743 317.055 329.743H311.611C310.38 329.838 309.528 330.169 309.007 330.69C308.486 331.211 308.202 331.826 308.202 332.536C308.202 333.152 308.391 333.625 308.817 333.957C309.244 334.288 309.812 334.477 310.664 334.619C311.469 334.762 312.51 334.809 313.741 334.809V334.762ZM313.646 320.511C315.019 320.511 316.061 320.18 316.771 319.517C317.481 318.854 317.813 317.955 317.813 316.866C317.813 315.73 317.434 314.783 316.771 314.025C316.061 313.268 315.019 312.889 313.694 312.889C312.368 312.889 311.327 313.268 310.569 313.978C309.812 314.735 309.433 315.635 309.433 316.819C309.433 317.529 309.622 318.192 309.954 318.76C310.285 319.328 310.758 319.754 311.421 320.085C312.037 320.417 312.794 320.559 313.694 320.559L313.646 320.511Z" fill="#3A3A39"/>
<path d="M341.721 332.442C339.875 332.442 338.17 332.205 336.75 331.684C335.282 331.163 334.051 330.406 333.057 329.459C332.063 328.465 331.258 327.281 330.737 325.814C330.217 324.393 329.933 322.736 329.933 320.937C329.933 319.138 330.169 317.529 330.69 316.014C331.211 314.499 331.921 313.173 332.915 312.084C333.909 310.995 335.093 310.096 336.513 309.528C337.934 308.96 339.543 308.628 341.295 308.628C343.047 308.628 344.562 308.912 345.934 309.48C347.307 310.049 348.396 310.901 349.343 311.99C350.243 313.126 350.905 314.499 351.332 316.108C351.758 317.718 351.9 319.612 351.805 321.695L334.004 321.884V318.476L348.207 318.334L346.029 320.085C346.219 318.57 346.124 317.292 345.745 316.345C345.319 315.351 344.751 314.641 343.993 314.167C343.236 313.694 342.384 313.457 341.484 313.457C340.395 313.457 339.401 313.741 338.596 314.309C337.744 314.878 337.129 315.73 336.655 316.819C336.182 317.907 335.945 319.28 335.945 320.795C335.945 323.257 336.466 325.056 337.555 326.192C338.644 327.329 340.064 327.944 341.816 327.944C342.62 327.944 343.331 327.849 343.851 327.613C344.372 327.376 344.893 327.139 345.224 326.761C345.603 326.429 345.887 326.003 346.077 325.577C346.266 325.151 346.455 324.725 346.597 324.299L351.994 325.482C351.758 326.571 351.379 327.518 350.858 328.37C350.337 329.222 349.675 329.933 348.87 330.548C348.018 331.163 347.023 331.637 345.887 331.968C344.704 332.3 343.378 332.442 341.816 332.442H341.721Z" fill="#3A3A39"/>
<path d="M258.397 142.029C259.912 150.645 262.895 169.298 262.611 183.69C262.327 199.172 258.019 212.996 252.385 222.701C252.006 223.316 252.811 223.979 253.379 223.506L288.081 194.058C290.591 191.928 291.017 188.283 289.17 185.584L258.397 141.981V142.029ZM257.167 140.372L200.024 59.4627V268.813L237.945 236.667C238.324 236.383 238.087 235.815 237.614 235.815C230.607 235.436 224.216 225.873 221.801 218.961C218.677 209.966 214.7 187.288 213.564 178.435C212.428 169.582 211.717 159.356 208.309 157.131C204.9 154.906 201.349 157.273 201.349 157.273C201.349 157.273 201.302 148.183 204.9 142.549C204.947 142.455 204.995 142.36 205.042 142.313C207.93 137.862 214.795 139.141 216.12 144.301C217.635 150.219 219.813 158.22 222.085 164.327C226.204 175.405 232.88 190.839 239.413 190.839C245.946 190.839 251.485 174.411 253.9 162.102C255.604 153.486 256.646 144.869 257.119 140.466" fill="#0070B8"/>
<path d="M132.986 212.096L137.105 215.599V148.231L130.667 157.32C129.057 159.593 128.157 162.339 128.157 165.179V201.775C128.157 205.752 129.909 209.54 132.986 212.143V212.096Z" fill="#3A3A39"/>
<path d="M174.932 247.509L179.051 250.965V89.0519L172.612 98.1418C171.003 100.462 170.103 103.207 170.103 106.001V237.093C170.103 241.117 171.855 244.905 174.932 247.509Z" fill="#3A3A39"/>
<path d="M153.959 229.802L158.078 233.306V118.594L151.639 127.684C150.03 130.004 149.13 132.749 149.13 135.543V219.482C149.13 223.506 150.882 227.293 153.959 229.85V229.802Z" fill="#3A3A39"/>
<path d="M191.076 76.3641V254.847C191.076 258.824 192.828 262.611 195.858 265.215L200.024 268.718V59.4153L193.585 68.5051C191.975 70.7776 191.076 73.5235 191.076 76.3641Z" fill="#3A3A39"/>
<path d="M117.079 198.745V176.589L110.972 185.253C108.889 188.188 109.409 192.212 112.155 194.532L117.079 198.745Z" fill="#3A3A39"/>
</g>
<defs>
<clipPath id="clip0_143_6100">
<rect width="400" height="400" fill="white"/>
</clipPath>
</defs>
</svg>
